<svg width="283" height="57" viewBox="0 0 283 57" fill="none" xmlns="http://www.w3.org/2000/svg">
<path d="M24 51C37.2548 51 48 40.2548 48 27C48 13.7452 37.2548 3 24 3C10.7452 3 0 13.7452 0 27C0 40.2548 10.7452 51 24 51Z" fill="#2CA01C"/>
<path d="M5.59735 28.0656C5.59735 33.2203 9.77602 37.3989 14.9307 37.3989H16.264V33.9323H14.9307C11.696 33.9323 9.06402 31.3008 9.06402 28.0656C9.06402 24.8304 11.696 22.1989 14.9307 22.1989H18.1349V40.3323C18.1349 42.2469 19.6869 43.7989 21.6016 43.7989V18.7323H14.9307C9.77602 18.7323 5.59735 22.9115 5.59735 28.0656ZM32.5307 18.7339H33.864V22.2005H32.5307C29.296 22.2005 26.664 24.8325 26.664 28.0672C26.664 31.3019 29.296 33.9339 32.5307 33.9339H35.7349V15.8005C35.7349 13.8859 37.2869 12.3339 39.2016 12.3339V37.4005H32.5317C27.3765 37.4005 23.1984 33.2219 23.1984 28.0672C23.1984 22.9125 27.3765 18.7339 32.5317 18.7339H32.5307Z" fill="white"/>
<path d="M89.574 42H71.556C69.232 42 67.076 41.664 65.088 40.992C63.128 40.292 61.434 39.284 60.006 37.968C58.578 36.652 57.458 35.056 56.646 33.18C55.834 31.304 55.428 29.162 55.428 26.754C55.428 24.514 55.834 22.456 56.646 20.58C57.486 18.704 58.62 17.094 60.048 15.75C61.476 14.406 63.156 13.37 65.088 12.642C67.02 11.886 69.092 11.508 71.304 11.508C73.516 11.508 75.588 11.886 77.52 12.642C79.452 13.398 81.132 14.448 82.56 15.792C83.988 17.136 85.108 18.746 85.92 20.622C86.76 22.47 87.18 24.514 87.18 26.754C87.18 27.818 87.054 28.854 86.802 29.862C86.578 30.87 86.228 31.822 85.752 32.718C85.276 33.614 84.66 34.426 83.904 35.154C83.148 35.854 82.266 36.428 81.258 36.876V36.96H89.574V42ZM62.232 26.754C62.232 28.042 62.47 29.246 62.946 30.366C63.422 31.486 64.066 32.466 64.878 33.306C65.718 34.118 66.684 34.762 67.776 35.238C68.868 35.714 70.044 35.952 71.304 35.952C72.564 35.952 73.74 35.714 74.832 35.238C75.924 34.762 76.876 34.118 77.688 33.306C78.528 32.466 79.186 31.486 79.662 30.366C80.138 29.246 80.376 28.042 80.376 26.754C80.376 25.466 80.138 24.262 79.662 23.142C79.186 22.022 78.528 21.056 77.688 20.244C76.876 19.404 75.924 18.746 74.832 18.27C73.74 17.794 72.564 17.556 71.304 17.556C70.044 17.556 68.868 17.794 67.776 18.27C66.684 18.746 65.718 19.404 64.878 20.244C64.066 21.056 63.422 22.022 62.946 23.142C62.47 24.262 62.232 25.466 62.232 26.754ZM110.808 42H104.76V39.228H104.676C104.452 39.62 104.158 40.012 103.794 40.404C103.458 40.796 103.038 41.146 102.534 41.454C102.03 41.762 101.456 42.014 100.812 42.21C100.168 42.406 99.4676 42.504 98.7116 42.504C97.1156 42.504 95.8136 42.266 94.8056 41.79C93.8256 41.286 93.0556 40.6 92.4956 39.732C91.9636 38.864 91.5996 37.842 91.4036 36.666C91.2356 35.49 91.1516 34.216 91.1516 32.844V21.588H97.4516V31.584C97.4516 32.172 97.4656 32.788 97.4936 33.432C97.5496 34.048 97.6756 34.622 97.8716 35.154C98.0956 35.686 98.4176 36.12 98.8376 36.456C99.2856 36.792 99.9156 36.96 100.728 36.96C101.54 36.96 102.198 36.82 102.702 36.54C103.206 36.232 103.584 35.84 103.836 35.364C104.116 34.86 104.298 34.3 104.382 33.684C104.466 33.068 104.508 32.424 104.508 31.752V21.588H110.808V42ZM114.513 21.588H120.813V42H114.513V21.588ZM114.009 15.162C114.009 14.154 114.359 13.3 115.059 12.6C115.787 11.872 116.655 11.508 117.663 11.508C118.671 11.508 119.525 11.872 120.225 12.6C120.953 13.3 121.317 14.154 121.317 15.162C121.317 16.17 120.953 17.038 120.225 17.766C119.525 18.466 118.671 18.816 117.663 18.816C116.655 18.816 115.787 18.466 115.059 17.766C114.359 17.038 114.009 16.17 114.009 15.162ZM138.317 28.182C138.009 27.734 137.575 27.37 137.015 27.09C136.455 26.782 135.853 26.628 135.209 26.628C133.613 26.628 132.367 27.104 131.471 28.056C130.603 29.008 130.169 30.254 130.169 31.794C130.169 33.334 130.603 34.58 131.471 35.532C132.367 36.484 133.613 36.96 135.209 36.96C135.909 36.96 136.511 36.806 137.015 36.498C137.519 36.19 137.953 35.826 138.317 35.406L142.475 39.774C141.495 40.782 140.333 41.496 138.989 41.916C137.673 42.308 136.413 42.504 135.209 42.504C133.641 42.504 132.157 42.252 130.757 41.748C129.385 41.244 128.181 40.53 127.145 39.606C126.137 38.654 125.339 37.52 124.751 36.204C124.163 34.888 123.869 33.418 123.869 31.794C123.869 30.17 124.163 28.7 124.751 27.384C125.339 26.068 126.137 24.948 127.145 24.024C128.181 23.072 129.385 22.344 130.757 21.84C132.157 21.336 133.641 21.084 135.209 21.084C136.413 21.084 137.673 21.294 138.989 21.714C140.333 22.106 141.495 22.806 142.475 23.814L138.317 28.182ZM143.921 10.248H150.221V29.652L157.193 21.588H164.921L156.815 30.786L165.131 42H157.193L150.305 31.668H150.221V42H143.921V10.248ZM167.469 12.264H187.419V18.312H174.021V24.36H186.411V30.408H174.021V42H167.469V12.264ZM203.285 39.438H203.201C202.501 40.53 201.563 41.314 200.387 41.79C199.239 42.266 198.021 42.504 196.733 42.504C195.781 42.504 194.857 42.364 193.961 42.084C193.093 41.832 192.323 41.44 191.651 40.908C190.979 40.376 190.447 39.718 190.055 38.934C189.663 38.15 189.467 37.24 189.467 36.204C189.467 35.028 189.677 34.034 190.097 33.222C190.545 32.41 191.133 31.738 191.861 31.206C192.617 30.674 193.471 30.268 194.423 29.988C195.375 29.68 196.355 29.456 197.363 29.316C198.399 29.176 199.421 29.092 200.429 29.064C201.465 29.036 202.417 29.022 203.285 29.022C203.285 27.902 202.879 27.02 202.067 26.376C201.283 25.704 200.345 25.368 199.253 25.368C198.217 25.368 197.265 25.592 196.397 26.04C195.557 26.46 194.801 27.048 194.129 27.804L190.769 24.36C191.945 23.268 193.317 22.456 194.885 21.924C196.453 21.364 198.077 21.084 199.757 21.084C201.605 21.084 203.117 21.322 204.293 21.798C205.497 22.246 206.449 22.918 207.149 23.814C207.877 24.71 208.381 25.816 208.661 27.132C208.941 28.42 209.081 29.918 209.081 31.626V42H203.285V39.438ZM201.731 33.054C201.255 33.054 200.653 33.082 199.925 33.138C199.225 33.166 198.539 33.278 197.867 33.474C197.223 33.67 196.663 33.964 196.187 34.356C195.739 34.748 195.515 35.294 195.515 35.994C195.515 36.75 195.837 37.31 196.481 37.674C197.125 38.038 197.797 38.22 198.497 38.22C199.113 38.22 199.701 38.136 200.261 37.968C200.849 37.8 201.367 37.562 201.815 37.254C202.263 36.946 202.613 36.554 202.865 36.078C203.145 35.602 203.285 35.042 203.285 34.398V33.054H201.731ZM212.782 10.248H219.082V23.772H219.166C219.894 22.792 220.818 22.106 221.938 21.714C223.086 21.294 224.318 21.084 225.634 21.084C227.09 21.084 228.392 21.392 229.54 22.008C230.688 22.596 231.654 23.394 232.438 24.402C233.25 25.41 233.866 26.572 234.286 27.888C234.734 29.176 234.958 30.534 234.958 31.962C234.958 33.502 234.72 34.916 234.244 36.204C233.768 37.492 233.082 38.612 232.186 39.564C231.318 40.488 230.268 41.216 229.036 41.748C227.804 42.252 226.432 42.504 224.92 42.504C224.192 42.504 223.506 42.406 222.862 42.21C222.218 42.014 221.616 41.762 221.056 41.454C220.524 41.146 220.048 40.81 219.628 40.446C219.236 40.054 218.914 39.676 218.662 39.312H218.578V42H212.782V10.248ZM218.578 31.794C218.578 33.334 219.012 34.58 219.88 35.532C220.776 36.484 222.022 36.96 223.618 36.96C225.214 36.96 226.446 36.484 227.314 35.532C228.21 34.58 228.658 33.334 228.658 31.794C228.658 30.254 228.21 29.008 227.314 28.056C226.446 27.104 225.214 26.628 223.618 26.628C222.022 26.628 220.776 27.104 219.88 28.056C219.012 29.008 218.578 30.254 218.578 31.794ZM237.809 21.588H244.109V24.864H244.193C244.865 23.604 245.663 22.666 246.587 22.05C247.511 21.406 248.673 21.084 250.073 21.084C250.437 21.084 250.801 21.098 251.165 21.126C251.529 21.154 251.865 21.21 252.173 21.294V27.048C251.725 26.908 251.277 26.81 250.829 26.754C250.409 26.67 249.961 26.628 249.485 26.628C248.281 26.628 247.329 26.796 246.629 27.132C245.929 27.468 245.383 27.944 244.991 28.56C244.627 29.148 244.389 29.862 244.277 30.702C244.165 31.542 244.109 32.466 244.109 33.474V42H237.809V21.588ZM254.156 21.588H260.456V42H254.156V21.588ZM253.652 15.162C253.652 14.154 254.002 13.3 254.702 12.6C255.43 11.872 256.298 11.508 257.306 11.508C258.314 11.508 259.168 11.872 259.868 12.6C260.596 13.3 260.96 14.154 260.96 15.162C260.96 16.17 260.596 17.038 259.868 17.766C259.168 18.466 258.314 18.816 257.306 18.816C256.298 18.816 255.43 18.466 254.702 17.766C254.002 17.038 253.652 16.17 253.652 15.162ZM277.96 28.182C277.652 27.734 277.218 27.37 276.658 27.09C276.098 26.782 275.496 26.628 274.852 26.628C273.256 26.628 272.01 27.104 271.114 28.056C270.246 29.008 269.812 30.254 269.812 31.794C269.812 33.334 270.246 34.58 271.114 35.532C272.01 36.484 273.256 36.96 274.852 36.96C275.552 36.96 276.154 36.806 276.658 36.498C277.162 36.19 277.596 35.826 277.96 35.406L282.118 39.774C281.138 40.782 279.976 41.496 278.632 41.916C277.316 42.308 276.056 42.504 274.852 42.504C273.284 42.504 271.8 42.252 270.4 41.748C269.028 41.244 267.824 40.53 266.788 39.606C265.78 38.654 264.982 37.52 264.394 36.204C263.806 34.888 263.512 33.418 263.512 31.794C263.512 30.17 263.806 28.7 264.394 27.384C264.982 26.068 265.78 24.948 266.788 24.024C267.824 23.072 269.028 22.344 270.4 21.84C271.8 21.336 273.284 21.084 274.852 21.084C276.056 21.084 277.316 21.294 278.632 21.714C279.976 22.106 281.138 22.806 282.118 23.814L277.96 28.182Z" fill="#4F4F4F"/>
</svg>
