<svg width="265" height="60" viewBox="0 0 265 60" fill="none" xmlns="http://www.w3.org/2000/svg">
<path d="M49.9685 48H29.3765C26.7205 48 24.2565 47.616 21.9845 46.848C19.7445 46.048 17.8085 44.896 16.1765 43.392C14.5445 41.888 13.2645 40.064 12.3365 37.92C11.4085 35.776 10.9445 33.328 10.9445 30.576C10.9445 28.016 11.4085 25.664 12.3365 23.52C13.2965 21.376 14.5925 19.536 16.2245 18C17.8565 16.464 19.7765 15.28 21.9845 14.448C24.1925 13.584 26.5605 13.152 29.0885 13.152C31.6165 13.152 33.9845 13.584 36.1925 14.448C38.4005 15.312 40.3205 16.512 41.9525 18.048C43.5845 19.584 44.8645 21.424 45.7925 23.568C46.7525 25.68 47.2325 28.016 47.2325 30.576C47.2325 31.792 47.0885 32.976 46.8005 34.128C46.5445 35.28 46.1445 36.368 45.6005 37.392C45.0565 38.416 44.3525 39.344 43.4885 40.176C42.6245 40.976 41.6165 41.632 40.4645 42.144V42.24H49.9685V48ZM18.7205 30.576C18.7205 32.048 18.9925 33.424 19.5365 34.704C20.0805 35.984 20.8165 37.104 21.7445 38.064C22.7045 38.992 23.8085 39.728 25.0565 40.272C26.3045 40.816 27.6485 41.088 29.0885 41.088C30.5285 41.088 31.8725 40.816 33.1205 40.272C34.3685 39.728 35.4565 38.992 36.3845 38.064C37.3445 37.104 38.0965 35.984 38.6405 34.704C39.1845 33.424 39.4565 32.048 39.4565 30.576C39.4565 29.104 39.1845 27.728 38.6405 26.448C38.0965 25.168 37.3445 24.064 36.3845 23.136C35.4565 22.176 34.3685 21.424 33.1205 20.88C31.8725 20.336 30.5285 20.064 29.0885 20.064C27.6485 20.064 26.3045 20.336 25.0565 20.88C23.8085 21.424 22.7045 22.176 21.7445 23.136C20.8165 24.064 20.0805 25.168 19.5365 26.448C18.9925 27.728 18.7205 29.104 18.7205 30.576ZM72.7955 48H65.8835V44.832H65.7875C65.5315 45.28 65.1955 45.728 64.7795 46.176C64.3955 46.624 63.9155 47.024 63.3395 47.376C62.7635 47.728 62.1075 48.016 61.3715 48.24C60.6355 48.464 59.8355 48.576 58.9715 48.576C57.1475 48.576 55.6595 48.304 54.5075 47.76C53.3875 47.184 52.5075 46.4 51.8675 45.408C51.2595 44.416 50.8435 43.248 50.6195 41.904C50.4275 40.56 50.3315 39.104 50.3315 37.536V24.672H57.5315V36.096C57.5315 36.768 57.5475 37.472 57.5795 38.208C57.6435 38.912 57.7875 39.568 58.0115 40.176C58.2675 40.784 58.6355 41.28 59.1155 41.664C59.6275 42.048 60.3475 42.24 61.2755 42.24C62.2035 42.24 62.9555 42.08 63.5315 41.76C64.1075 41.408 64.5395 40.96 64.8275 40.416C65.1475 39.84 65.3555 39.2 65.4515 38.496C65.5475 37.792 65.5955 37.056 65.5955 36.288V24.672H72.7955V48ZM75.59 24.672H82.79V48H75.59V24.672ZM75.014 17.328C75.014 16.176 75.414 15.2 76.214 14.4C77.046 13.568 78.038 13.152 79.19 13.152C80.342 13.152 81.318 13.568 82.118 14.4C82.95 15.2 83.366 16.176 83.366 17.328C83.366 18.48 82.95 19.472 82.118 20.304C81.318 21.104 80.342 21.504 79.19 21.504C78.038 21.504 77.046 21.104 76.214 20.304C75.414 19.472 75.014 18.48 75.014 17.328ZM101.355 32.208C101.003 31.696 100.507 31.28 99.8668 30.96C99.2268 30.608 98.5388 30.432 97.8028 30.432C95.9788 30.432 94.5548 30.976 93.5308 32.064C92.5388 33.152 92.0428 34.576 92.0428 36.336C92.0428 38.096 92.5388 39.52 93.5308 40.608C94.5548 41.696 95.9788 42.24 97.8028 42.24C98.6028 42.24 99.2908 42.064 99.8668 41.712C100.443 41.36 100.939 40.944 101.355 40.464L106.107 45.456C104.987 46.608 103.659 47.424 102.123 47.904C100.619 48.352 99.1788 48.576 97.8028 48.576C96.0108 48.576 94.3148 48.288 92.7148 47.712C91.1468 47.136 89.7708 46.32 88.5868 45.264C87.4348 44.176 86.5228 42.88 85.8508 41.376C85.1788 39.872 84.8428 38.192 84.8428 36.336C84.8428 34.48 85.1788 32.8 85.8508 31.296C86.5228 29.792 87.4348 28.512 88.5868 27.456C89.7708 26.368 91.1468 25.536 92.7148 24.96C94.3148 24.384 96.0108 24.096 97.8028 24.096C99.1788 24.096 100.619 24.336 102.123 24.816C103.659 25.264 104.987 26.064 106.107 27.216L101.355 32.208ZM106.319 11.712H113.519V33.888L121.487 24.672H130.319L121.055 35.184L130.559 48H121.487L113.615 36.192H113.519V48H106.319V11.712ZM131.791 14.016H154.591V20.928H139.279V27.84H153.439V34.752H139.279V48H131.791V14.016ZM171.284 45.072H171.188C170.388 46.32 169.316 47.216 167.972 47.76C166.66 48.304 165.268 48.576 163.796 48.576C162.708 48.576 161.652 48.416 160.628 48.096C159.636 47.808 158.756 47.36 157.988 46.752C157.22 46.144 156.612 45.392 156.164 44.496C155.716 43.6 155.492 42.56 155.492 41.376C155.492 40.032 155.732 38.896 156.212 37.968C156.724 37.04 157.396 36.272 158.228 35.664C159.092 35.056 160.068 34.592 161.156 34.272C162.244 33.92 163.364 33.664 164.516 33.504C165.7 33.344 166.868 33.248 168.02 33.216C169.204 33.184 170.292 33.168 171.284 33.168C171.284 31.888 170.82 30.88 169.892 30.144C168.996 29.376 167.924 28.992 166.676 28.992C165.492 28.992 164.404 29.248 163.412 29.76C162.452 30.24 161.588 30.912 160.82 31.776L156.98 27.84C158.324 26.592 159.892 25.664 161.684 25.056C163.476 24.416 165.332 24.096 167.252 24.096C169.364 24.096 171.092 24.368 172.436 24.912C173.812 25.424 174.9 26.192 175.7 27.216C176.532 28.24 177.108 29.504 177.428 31.008C177.748 32.48 177.908 34.192 177.908 36.144V48H171.284V45.072ZM169.508 37.776C168.964 37.776 168.276 37.808 167.444 37.872C166.644 37.904 165.86 38.032 165.092 38.256C164.356 38.48 163.716 38.816 163.172 39.264C162.66 39.712 162.404 40.336 162.404 41.136C162.404 42 162.772 42.64 163.508 43.056C164.244 43.472 165.012 43.68 165.812 43.68C166.516 43.68 167.188 43.584 167.828 43.392C168.5 43.2 169.092 42.928 169.604 42.576C170.116 42.224 170.516 41.776 170.804 41.232C171.124 40.688 171.284 40.048 171.284 39.312V37.776H169.508ZM180.697 11.712H187.897V27.168H187.993C188.825 26.048 189.881 25.264 191.161 24.816C192.473 24.336 193.881 24.096 195.385 24.096C197.049 24.096 198.537 24.448 199.849 25.152C201.161 25.824 202.265 26.736 203.161 27.888C204.089 29.04 204.793 30.368 205.273 31.872C205.785 33.344 206.041 34.896 206.041 36.528C206.041 38.288 205.769 39.904 205.225 41.376C204.681 42.848 203.897 44.128 202.873 45.216C201.881 46.272 200.681 47.104 199.273 47.712C197.865 48.288 196.297 48.576 194.569 48.576C193.737 48.576 192.953 48.464 192.217 48.24C191.481 48.016 190.793 47.728 190.153 47.376C189.545 47.024 189.001 46.64 188.521 46.224C188.073 45.776 187.705 45.344 187.417 44.928H187.321V48H180.697V11.712ZM187.321 36.336C187.321 38.096 187.817 39.52 188.809 40.608C189.833 41.696 191.257 42.24 193.081 42.24C194.905 42.24 196.313 41.696 197.305 40.608C198.329 39.52 198.841 38.096 198.841 36.336C198.841 34.576 198.329 33.152 197.305 32.064C196.313 30.976 194.905 30.432 193.081 30.432C191.257 30.432 189.833 30.976 188.809 32.064C187.817 33.152 187.321 34.576 187.321 36.336ZM207.86 24.672H215.06V28.416H215.156C215.924 26.976 216.836 25.904 217.892 25.2C218.948 24.464 220.276 24.096 221.876 24.096C222.292 24.096 222.708 24.112 223.124 24.144C223.54 24.176 223.924 24.24 224.276 24.336V30.912C223.764 30.752 223.252 30.64 222.74 30.576C222.26 30.48 221.748 30.432 221.204 30.432C219.828 30.432 218.74 30.624 217.94 31.008C217.14 31.392 216.516 31.936 216.068 32.64C215.652 33.312 215.38 34.128 215.252 35.088C215.124 36.048 215.06 37.104 215.06 38.256V48H207.86V24.672ZM225.102 24.672H232.302V48H225.102V24.672ZM224.526 17.328C224.526 16.176 224.926 15.2 225.726 14.4C226.558 13.568 227.55 13.152 228.702 13.152C229.854 13.152 230.83 13.568 231.63 14.4C232.462 15.2 232.878 16.176 232.878 17.328C232.878 18.48 232.462 19.472 231.63 20.304C230.83 21.104 229.854 21.504 228.702 21.504C227.55 21.504 226.558 21.104 225.726 20.304C224.926 19.472 224.526 18.48 224.526 17.328ZM250.867 32.208C250.515 31.696 250.019 31.28 249.379 30.96C248.739 30.608 248.051 30.432 247.315 30.432C245.491 30.432 244.067 30.976 243.043 32.064C242.051 33.152 241.555 34.576 241.555 36.336C241.555 38.096 242.051 39.52 243.043 40.608C244.067 41.696 245.491 42.24 247.315 42.24C248.115 42.24 248.803 42.064 249.379 41.712C249.955 41.36 250.451 40.944 250.867 40.464L255.619 45.456C254.499 46.608 253.171 47.424 251.635 47.904C250.131 48.352 248.691 48.576 247.315 48.576C245.523 48.576 243.827 48.288 242.227 47.712C240.659 47.136 239.283 46.32 238.099 45.264C236.947 44.176 236.035 42.88 235.363 41.376C234.691 39.872 234.355 38.192 234.355 36.336C234.355 34.48 234.691 32.8 235.363 31.296C236.035 29.792 236.947 28.512 238.099 27.456C239.283 26.368 240.659 25.536 242.227 24.96C243.827 24.384 245.523 24.096 247.315 24.096C248.691 24.096 250.131 24.336 251.635 24.816C253.171 25.264 254.499 26.064 255.619 27.216L250.867 32.208Z" fill="white"/>
</svg>
